<?xml version="1.0" encoding="UTF-8"?>
<svg version="1.1" xmlns="http://www.w3.org/2000/svg" width="458" height="350">
<path d="M0 0 C1.00111816 0.25740967 1.00111816 0.25740967 2.02246094 0.52001953 C30.48882097 8.05760989 52.82345072 25.71746015 67.70703125 50.88671875 C80.57934929 74.77383045 83.25201036 104.72114267 75.875 130.6875 C66.9893404 159.66189115 46.8189838 182.37277002 20.3125 196.625 C7.50685127 202.8133757 -6.98745883 206.40437087 -21.1875 206.3125 C-22.55660522 206.30512817 -22.55660522 206.30512817 -23.95336914 206.29760742 C-49.17022981 205.86592558 -69.37006004 195.62993996 -86.88671875 178.11328125 C-102.75089036 161.10831528 -107.84653205 139.99439967 -107.13183594 117.34912109 C-105.85436284 94.58644303 -93.27589185 75.55006343 -77.1875 60.3125 C-62.72280368 47.7142161 -44.1327824 41.68132452 -25 43 C-6.95710955 45.47456489 7.96385446 52.15521652 19.9296875 66.1796875 C29.66560361 79.44257699 33.70073525 95.05296139 31.56640625 111.30078125 C28.72731131 127.15386418 20.96724819 141.09589282 7.70703125 150.41796875 C-1.7667541 156.53972023 -13.54316784 160.55560789 -24.90234375 158.49609375 C-25.59457031 158.33238281 -26.28679687 158.16867188 -27 158 C-27.78503906 157.84660156 -28.57007813 157.69320312 -29.37890625 157.53515625 C-39.7055475 155.06258018 -47.98318541 148.53136343 -53.625 139.62109375 C-58.67663467 129.99141515 -59.34279323 119.58270131 -56.125 109.16796875 C-52.97972668 102.05834051 -47.57371259 96.22859244 -40.546875 92.8046875 C-33.60624421 90.61178882 -26.38984254 91.39186329 -19.9453125 94.671875 C-15.49016965 97.71353879 -13.48479712 101.33350991 -12 106.4375 C-12 110.87107517 -12.72626085 114.18011823 -15 118 C-18.35817732 121.12921069 -19.95607608 122.01831445 -24.5625 121.9375 C-27.86244961 121.03751374 -30.20763095 119.94619661 -33 118 C-33.41776675 124.05761794 -33.12264203 127.19025097 -29 132 C-24.11770243 135.10885906 -18.56606217 134.68526896 -13 134 C-3.96142433 130.72554594 1.75497683 124.25576304 5.81640625 115.7109375 C8.87847855 106.11038077 8.65763254 95.26670743 4.3125 86.125 C1.96477191 82.18475706 -0.41090762 78.90545574 -4 76 C-4.87785156 75.24976562 -4.87785156 75.24976562 -5.7734375 74.484375 C-13.1980116 68.4390696 -20.8218358 66.43956141 -30.3125 66.5625 C-31.55471313 66.57385986 -31.55471313 66.57385986 -32.82202148 66.58544922 C-46.67122156 66.955121 -58.67857338 73.12771368 -68.76171875 82.4765625 C-71.50251262 85.56653255 -73.71257978 88.80061614 -75.875 92.3125 C-76.24439697 92.90409912 -76.61379395 93.49569824 -76.99438477 94.10522461 C-82.14106904 102.94216327 -83.54501233 112.27652079 -83.4375 122.375 C-83.42992676 123.37942139 -83.42235352 124.38384277 -83.41455078 125.41870117 C-83.04029013 142.33009229 -76.10570601 155.29717802 -64 167 C-48.4582052 180.66899637 -31.01958744 183.20421165 -11 182 C7.69843421 179.80746681 25.21724986 168.65726027 37.05078125 154.35693359 C48.14329946 140.22942684 55.21758844 124.1258678 56 106 C56.0515625 105.13890625 56.103125 104.2778125 56.15625 103.390625 C56.58823561 90.0710687 54.02464486 76.90114271 48 65 C47.50757813 64.01644531 47.01515625 63.03289062 46.5078125 62.01953125 C36.81678959 44.09809414 20.3363043 30.43720517 0.86865234 24.33154297 C-3.71351183 23.02898313 -8.33199902 21.95307155 -13 21 C-14.35158203 20.71189453 -14.35158203 20.71189453 -15.73046875 20.41796875 C-35.90072574 17.83945322 -55.65134896 20.23161809 -74 29 C-74.81210938 29.35578125 -75.62421875 29.7115625 -76.4609375 30.078125 C-101.37335118 41.52654811 -120.15921162 63.25892891 -129.82421875 88.62890625 C-130.37230371 90.1656275 -130.91041645 91.7059494 -131.4375 93.25 C-131.67243164 93.93344482 -131.90736328 94.61688965 -132.14941406 95.32104492 C-135.76823173 106.68279208 -136.36042992 118.27893627 -136.3125 130.125 C-136.31200653 130.79854523 -136.31151306 131.47209045 -136.31100464 132.16604614 C-136.28904587 141.99528608 -135.65699451 151.501546 -133.75390625 161.15234375 C-132.97978275 165.1031813 -132.46004254 169.00254294 -132 173 C-133.32 173.33 -134.64 173.66 -136 174 C-151.62868615 153.71743842 -157.52672101 128.52683721 -154.25 103.125 C-148.88643186 69.78893411 -132.85891896 39.81679388 -105.1875 19.6875 C-74.99134926 -1.41103848 -35.82042992 -9.23321641 0 0 Z " fill="#EBEAE8" transform="translate(266,15)"/>
<path d="M0 0 C8.61128572 3.61297931 17.16758397 7.14699461 26.13272095 9.80807495 C26.85459595 10.02334839 27.57647095 10.23862183 28.32022095 10.4604187 C58.03272798 18.75098714 86.1751833 13.25132973 114.13467407 2.09616089 C150.04405382 -12.11518337 186.78586385 -17.77964467 223.33584595 -2.05130005 C231.16065081 1.55835695 237.74550827 5.77865282 243.75772095 12.05807495 C242.88272095 15.93307495 242.88272095 15.93307495 241.75772095 17.05807495 C235.63110851 16.88007029 229.63238291 15.47192888 223.69522095 14.05807495 C203.49598581 9.27267676 180.92519307 8.7894017 160.75772095 14.05807495 C160.02988403 14.24079956 159.30204712 14.42352417 158.55215454 14.61178589 C147.78336027 17.37954099 137.62698149 21.26111662 127.38272095 25.55807495 C115.70029327 30.4417531 104.12120758 34.32082508 91.75772095 37.05807495 C90.98653931 37.23306519 90.21535767 37.40805542 89.42080688 37.58834839 C68.82496849 42.07342747 46.27848266 41.81080415 25.75772095 37.05807495 C24.56831909 36.78398804 24.56831909 36.78398804 23.35488892 36.50436401 C8.61436095 32.96384675 -5.14475378 27.18051955 -19.10116577 21.35494995 C-35.59312138 14.54589755 -52.84612702 8.01977261 -70.8946228 7.8197937 C-71.62311935 7.81004517 -72.35161591 7.80029663 -73.10218811 7.79025269 C-94.39726373 7.56428177 -114.13922229 9.09600713 -134.57675171 15.57052612 C-138.50538644 16.78283069 -141.27644856 17.31572159 -145.24227905 16.05807495 C-145.9649353 13.7963562 -145.9649353 13.7963562 -146.24227905 11.05807495 C-135.53049801 -4.14476443 -108.9621948 -11.97909662 -92.0586853 -15.62942505 C-59.41100986 -21.27320088 -29.76021651 -12.50151865 0 0 Z " fill="#ECEAE8" transform="translate(177.24227905273438,229.94192504882813)"/>
<path d="M0 0 C38.52389132 16.04746831 75.68590058 8.15384021 112.95703125 -6.0546875 C146.74845802 -18.90282079 180.68698552 -22.19669123 214.76953125 -8.4296875 C230.33770567 -1.27771874 230.33770567 -1.27771874 232.76953125 5.2578125 C232.76953125 6.0209375 232.76953125 6.7840625 232.76953125 7.5703125 C230.76953125 9.5703125 230.76953125 9.5703125 227.171875 9.81640625 C222.71390082 9.70276964 218.62665496 8.77043509 214.33203125 7.6328125 C179.04414021 -1.57131023 145.31335237 8.69085155 112.80078125 22.20703125 C99.04619664 27.90322336 84.63041218 32.91910351 69.76953125 34.5703125 C68.82464844 34.67988281 67.87976563 34.78945313 66.90625 34.90234375 C30.5197392 38.5168978 -0.94183341 28.20462848 -34.34765625 14.9621582 C-35.29898438 14.58534912 -36.2503125 14.20854004 -37.23046875 13.8203125 C-38.16375 13.45059326 -39.09703125 13.08087402 -40.05859375 12.69995117 C-46.17937798 10.30174601 -52.33756927 8.11516007 -58.60546875 6.1328125 C-59.34796875 5.89788086 -60.09046875 5.66294922 -60.85546875 5.42089844 C-81.49696409 -0.91228763 -104.04862261 -1.32218008 -125.23046875 2.5703125 C-125.87870605 2.68810059 -126.52694336 2.80588867 -127.19482422 2.92724609 C-132.83845654 3.9648281 -138.43942524 5.0478465 -143.953125 6.65625 C-147.21382721 7.56567112 -149.86599699 7.73443307 -153.23046875 7.5703125 C-153.98046875 5.8828125 -153.98046875 5.8828125 -154.23046875 3.5703125 C-144.05579833 -11.47156805 -118.99904922 -18.00370458 -102.23046875 -21.4296875 C-65.95041561 -27.19074117 -32.60086694 -14.42795321 0 0 Z " fill="#EBEAE8" transform="translate(181.23046875,294.4296875)"/>
</svg>
