<svg id="visual" viewBox="0 0 1920 1080" width="1920" height="1080" xmlns="http://www.w3.org/2000/svg" xmlns:xlink="http://www.w3.org/1999/xlink" version="1.1"><path d="M0 347L106.7 347C213.3 347 426.7 347 640 366.7C853.3 386.3 1066.7 425.7 1280 438.2C1493.3 450.7 1706.7 436.3 1813.3 429.2L1920 422L1920 0L1813.3 0C1706.7 0 1493.3 0 1280 0C1066.7 0 853.3 0 640 0C426.7 0 213.3 0 106.7 0L0 0Z" fill="#dfffee"></path><path d="M0 757L106.7 780.3C213.3 803.7 426.7 850.3 640 870.2C853.3 890 1066.7 883 1280 877.7C1493.3 872.3 1706.7 868.7 1813.3 866.8L1920 865L1920 420L1813.3 427.2C1706.7 434.3 1493.3 448.7 1280 436.2C1066.7 423.7 853.3 384.3 640 364.7C426.7 345 213.3 345 106.7 345L0 345Z" fill="#cfffe6"></path><path d="M0 1081L106.7 1081C213.3 1081 426.7 1081 640 1081C853.3 1081 1066.7 1081 1280 1081C1493.3 1081 1706.7 1081 1813.3 1081L1920 1081L1920 863L1813.3 864.8C1706.7 866.7 1493.3 870.3 1280 875.7C1066.7 881 853.3 888 640 868.2C426.7 848.3 213.3 801.7 106.7 778.3L0 755Z" fill="#b3ffd7"></path></svg>