<svg id="visual" viewBox="0 0 900 600" width="900" height="600" xmlns="http://www.w3.org/2000/svg" xmlns:xlink="http://www.w3.org/1999/xlink" version="1.1"><rect x="0" y="0" width="900" height="600" fill="#fff6f1"></rect><path d="M0 488L21.5 485.3C43 482.7 86 477.3 128.8 476.2C171.7 475 214.3 478 257.2 476.3C300 474.7 343 468.3 385.8 467.3C428.7 466.3 471.3 470.7 514.2 475.2C557 479.7 600 484.3 642.8 484.2C685.7 484 728.3 479 771.2 475.3C814 471.7 857 469.3 878.5 468.2L900 467L900 601L878.5 601C857 601 814 601 771.2 601C728.3 601 685.7 601 642.8 601C600 601 557 601 514.2 601C471.3 601 428.7 601 385.8 601C343 601 300 601 257.2 601C214.3 601 171.7 601 128.8 601C86 601 43 601 21.5 601L0 601Z" fill="#efdfd2" stroke-linecap="round" stroke-linejoin="miter"></path></svg>