<svg id="visual" viewBox="0 0 1920 1080" width="1920" height="1080" xmlns="http://www.w3.org/2000/svg" xmlns:xlink="http://www.w3.org/1999/xlink" version="1.1"><rect x="0" y="0" width="1920" height="1080" fill="#edebe7"></rect><path d="M0 858L53.3 878.2C106.7 898.3 213.3 938.7 320 946.5C426.7 954.3 533.3 929.7 640 909.3C746.7 889 853.3 873 960 870.3C1066.7 867.7 1173.3 878.3 1280 899C1386.7 919.7 1493.3 950.3 1600 958.2C1706.7 966 1813.3 951 1866.7 943.5L1920 936L1920 1081L1866.7 1081C1813.3 1081 1706.7 1081 1600 1081C1493.3 1081 1386.7 1081 1280 1081C1173.3 1081 1066.7 1081 960 1081C853.3 1081 746.7 1081 640 1081C533.3 1081 426.7 1081 320 1081C213.3 1081 106.7 1081 53.3 1081L0 1081Z" fill="#789d89" stroke-linecap="round" stroke-linejoin="miter"></path></svg>