<svg id="visual" viewBox="0 0 900 600" width="900" height="600" xmlns="http://www.w3.org/2000/svg" xmlns:xlink="http://www.w3.org/1999/xlink" version="1.1"><rect x="0" y="0" width="900" height="600" fill="#fff6f1"></rect><path d="M0 530L25 533C50 536 100 542 150 548C200 554 250 560 300 558.8C350 557.7 400 549.3 450 541.7C500 534 550 527 600 525.7C650 524.3 700 528.7 750 530.3C800 532 850 531 875 530.5L900 530L900 601L875 601C850 601 800 601 750 601C700 601 650 601 600 601C550 601 500 601 450 601C400 601 350 601 300 601C250 601 200 601 150 601C100 601 50 601 25 601L0 601Z" fill="#7a9d8a" stroke-linecap="round" stroke-linejoin="miter"></path></svg>