<svg id="visual" viewBox="0 0 900 600" width="900" height="600" xmlns="http://www.w3.org/2000/svg" xmlns:xlink="http://www.w3.org/1999/xlink" version="1.1"><rect x="0" y="0" width="900" height="600" fill="#7a9d8a"></rect><path d="M0 26L21.5 27.7C43 29.3 86 32.7 128.8 32.5C171.7 32.3 214.3 28.7 257.2 26.8C300 25 343 25 385.8 26.7C428.7 28.3 471.3 31.7 514.2 31C557 30.3 600 25.7 642.8 26C685.7 26.3 728.3 31.7 771.2 32.2C814 32.7 857 28.3 878.5 26.2L900 24L900 0L878.5 0C857 0 814 0 771.2 0C728.3 0 685.7 0 642.8 0C600 0 557 0 514.2 0C471.3 0 428.7 0 385.8 0C343 0 300 0 257.2 0C214.3 0 171.7 0 128.8 0C86 0 43 0 21.5 0L0 0Z" fill="#f7eadf" stroke-linecap="round" stroke-linejoin="miter"></path></svg>