<svg id="visual" viewBox="0 0 1920 1080" width="1920" height="1080" xmlns="http://www.w3.org/2000/svg" xmlns:xlink="http://www.w3.org/1999/xlink" version="1.1"><rect x="0" y="0" width="1920" height="1080" fill="#edeae8"></rect><path d="M0 796L45.7 797C91.3 798 182.7 800 274.2 796.5C365.7 793 457.3 784 548.8 782.5C640.3 781 731.7 787 823 789C914.3 791 1005.7 789 1097 780.8C1188.3 772.7 1279.7 758.3 1371.2 763.2C1462.7 768 1554.3 792 1645.8 792.5C1737.3 793 1828.7 770 1874.3 758.5L1920 747L1920 1081L1874.3 1081C1828.7 1081 1737.3 1081 1645.8 1081C1554.3 1081 1462.7 1081 1371.2 1081C1279.7 1081 1188.3 1081 1097 1081C1005.7 1081 914.3 1081 823 1081C731.7 1081 640.3 1081 548.8 1081C457.3 1081 365.7 1081 274.2 1081C182.7 1081 91.3 1081 45.7 1081L0 1081Z" fill="#789d89"></path><path d="M0 820L45.7 821.5C91.3 823 182.7 826 274.2 831.2C365.7 836.3 457.3 843.7 548.8 845.2C640.3 846.7 731.7 842.3 823 842.5C914.3 842.7 1005.7 847.3 1097 852.7C1188.3 858 1279.7 864 1371.2 858.3C1462.7 852.7 1554.3 835.3 1645.8 830.3C1737.3 825.3 1828.7 832.7 1874.3 836.3L1920 840L1920 1081L1874.3 1081C1828.7 1081 1737.3 1081 1645.8 1081C1554.3 1081 1462.7 1081 1371.2 1081C1279.7 1081 1188.3 1081 1097 1081C1005.7 1081 914.3 1081 823 1081C731.7 1081 640.3 1081 548.8 1081C457.3 1081 365.7 1081 274.2 1081C182.7 1081 91.3 1081 45.7 1081L0 1081Z" fill="#8eb297"></path><path d="M0 861L45.7 861.7C91.3 862.3 182.7 863.7 274.2 867.3C365.7 871 457.3 877 548.8 887C640.3 897 731.7 911 823 912.3C914.3 913.7 1005.7 902.3 1097 898.3C1188.3 894.3 1279.7 897.7 1371.2 898.3C1462.7 899 1554.3 897 1645.8 900.8C1737.3 904.7 1828.7 914.3 1874.3 919.2L1920 924L1920 1081L1874.3 1081C1828.7 1081 1737.3 1081 1645.8 1081C1554.3 1081 1462.7 1081 1371.2 1081C1279.7 1081 1188.3 1081 1097 1081C1005.7 1081 914.3 1081 823 1081C731.7 1081 640.3 1081 548.8 1081C457.3 1081 365.7 1081 274.2 1081C182.7 1081 91.3 1081 45.7 1081L0 1081Z" fill="#a6c7a4"></path><path d="M0 970L45.7 966.8C91.3 963.7 182.7 957.3 274.2 955.3C365.7 953.3 457.3 955.7 548.8 952.2C640.3 948.7 731.7 939.3 823 943C914.3 946.7 1005.7 963.3 1097 966.3C1188.3 969.3 1279.7 958.7 1371.2 953.7C1462.7 948.7 1554.3 949.3 1645.8 952.5C1737.3 955.7 1828.7 961.3 1874.3 964.2L1920 967L1920 1081L1874.3 1081C1828.7 1081 1737.3 1081 1645.8 1081C1554.3 1081 1462.7 1081 1371.2 1081C1279.7 1081 1188.3 1081 1097 1081C1005.7 1081 914.3 1081 823 1081C731.7 1081 640.3 1081 548.8 1081C457.3 1081 365.7 1081 274.2 1081C182.7 1081 91.3 1081 45.7 1081L0 1081Z" fill="#c0dcb1"></path><path d="M0 994L45.7 998.7C91.3 1003.3 182.7 1012.7 274.2 1017.7C365.7 1022.7 457.3 1023.3 548.8 1024.7C640.3 1026 731.7 1028 823 1022.8C914.3 1017.7 1005.7 1005.3 1097 998.7C1188.3 992 1279.7 991 1371.2 997.3C1462.7 1003.7 1554.3 1017.3 1645.8 1018.7C1737.3 1020 1828.7 1009 1874.3 1003.5L1920 998L1920 1081L1874.3 1081C1828.7 1081 1737.3 1081 1645.8 1081C1554.3 1081 1462.7 1081 1371.2 1081C1279.7 1081 1188.3 1081 1097 1081C1005.7 1081 914.3 1081 823 1081C731.7 1081 640.3 1081 548.8 1081C457.3 1081 365.7 1081 274.2 1081C182.7 1081 91.3 1081 45.7 1081L0 1081Z" fill="#ddf1be"></path></svg>